Input #0, mov,mp4,m4a,3gp,3g2,mj2, from '/home/hbattu/projects/huberman-gpt/huberman-audio/mp3/tmpcepjv5e4.mp4':
  Metadata:
    major_brand     : dash
    minor_version   : 0
    compatible_brands: iso6mp41
    creation_time   : 2022-09-03T17:24:54.000000Z
  Duration: 01:54:19.80, start: 0.000000, bitrate: 129 kb/s
    Stream #0:0(eng): Audio: aac (LC) (mp4a / 0x6134706D), 44100 Hz, stereo, fltp, 0 kb/s (default)
    Metadata:
      creation_time   : 2022-09-03T17:24:54.000000Z
      handler_name    : ISO Media file produced by Google Inc.
Stream mapping:
  Stream #0:0 -> #0:0 (aac (native) -> mp3 (libmp3lame))
Press [q] to stop, [?] for help
[graph_0_in_0_0 @ 0x55b970046340] tb:1/44100 samplefmt:fltp samplerate:44100 chlayout:0x3
Output #0, mp3, to '../huberman-audio/mp3/LVxL_p_kToc.mp3':
  Metadata:
    major_brand     : dash
    minor_version   : 0
    compatible_brands: iso6mp41
    TSSE            : Lavf58.29.100
    Stream #0:0(eng): Audio: mp3 (libmp3lame), 44100 Hz, stereo, fltp, delay 1105 (default)
    Metadata:
      creation_time   : 2022-09-03T17:24:54.000000Z
      handler_name    : ISO Media file produced by Google Inc.
      encoder         : Lavc58.54.100 libmp3lame
No more output streams to write to, finishing.
size=  107185kB time=01:54:19.80 bitrate= 128.0kbits/s speed=96.2x    
[AVIOContext @ 0x55b96ff37900] Statistics: 0 seeks, 143 writeouts
video:0kB audio:107185kB subtitle:0kB other streams:0kB global headers:0kB muxing overhead: 0.000315%
Input file #0 (/home/hbattu/projects/huberman-gpt/huberman-audio/mp3/tmpcepjv5e4.mp4):
  Input stream #0:0 (audio): 295427 packets read (109756824 bytes); 295427 frames decoded (302517248 samples); 
  Total: 295427 packets (109756824 bytes) demuxed
Output file #0 (../huberman-audio/mp3/LVxL_p_kToc.mp3):
  Output stream #0:0 (audio): 262602 frames encoded (302517248 samples); 262603 packets muxed (109757335 bytes); 
  Total: 262603 packets (109757335 bytes) muxed
[AVIOContext @ 0x55b96ff5ea40] Statistics: 2 seeks, 420 writeouts
[AVIOContext @ 0x55b96ff40880] Statistics: 111019004 bytes read, 0 seeks
